<?xml version="1.0" encoding="UTF-8" ?>
<svg version="1.1" width="51" height="17" xmlns="http://www.w3.org/2000/svg" shape-rendering="crispEdges">
<rect x="1" y="0" width="1" height="1" fill="#8F563B" />
<rect x="2" y="0" width="1" height="1" fill="#8F563B" />
<rect x="3" y="0" width="1" height="1" fill="#8F563B" />
<rect x="4" y="0" width="1" height="1" fill="#8F563B" />
<rect x="1" y="1" width="1" height="1" fill="#663931" />
<rect x="2" y="1" width="1" height="1" fill="#663931" />
<rect x="3" y="1" width="1" height="1" fill="#663931" />
<rect x="4" y="1" width="1" height="1" fill="#663931" />
<rect x="5" y="1" width="1" height="1" fill="#663931" />
<rect x="6" y="1" width="1" height="1" fill="#8F563B" />
<rect x="7" y="1" width="1" height="1" fill="#8F563B" />
<rect x="8" y="1" width="1" height="1" fill="#8F563B" />
<rect x="14" y="1" width="1" height="1" fill="#8F563B" />
<rect x="15" y="1" width="1" height="1" fill="#8F563B" />
<rect x="16" y="1" width="1" height="1" fill="#8F563B" />
<rect x="17" y="1" width="1" height="1" fill="#8F563B" />
<rect x="40" y="1" width="1" height="1" fill="#8F563B" />
<rect x="41" y="1" width="1" height="1" fill="#8F563B" />
<rect x="42" y="1" width="1" height="1" fill="#8F563B" />
<rect x="43" y="1" width="1" height="1" fill="#8F563B" />
<rect x="2" y="2" width="1" height="1" fill="#EEC39A" />
<rect x="3" y="2" width="1" height="1" fill="#EEC39A" />
<rect x="4" y="2" width="1" height="1" fill="#EEC39A" />
<rect x="5" y="2" width="1" height="1" fill="#EEC39A" />
<rect x="6" y="2" width="1" height="1" fill="#EEC39A" />
<rect x="7" y="2" width="1" height="1" fill="#EEC39A" />
<rect x="8" y="2" width="1" height="1" fill="#8F563B" />
<rect x="9" y="2" width="1" height="1" fill="#8F563B" />
<rect x="14" y="2" width="1" height="1" fill="#663931" />
<rect x="15" y="2" width="1" height="1" fill="#663931" />
<rect x="16" y="2" width="1" height="1" fill="#663931" />
<rect x="17" y="2" width="1" height="1" fill="#663931" />
<rect x="18" y="2" width="1" height="1" fill="#663931" />
<rect x="19" y="2" width="1" height="1" fill="#8F563B" />
<rect x="20" y="2" width="1" height="1" fill="#8F563B" />
<rect x="21" y="2" width="1" height="1" fill="#8F563B" />
<rect x="27" y="2" width="1" height="1" fill="#8F563B" />
<rect x="28" y="2" width="1" height="1" fill="#8F563B" />
<rect x="29" y="2" width="1" height="1" fill="#8F563B" />
<rect x="30" y="2" width="1" height="1" fill="#8F563B" />
<rect x="40" y="2" width="1" height="1" fill="#663931" />
<rect x="41" y="2" width="1" height="1" fill="#663931" />
<rect x="42" y="2" width="1" height="1" fill="#663931" />
<rect x="43" y="2" width="1" height="1" fill="#663931" />
<rect x="44" y="2" width="1" height="1" fill="#663931" />
<rect x="45" y="2" width="1" height="1" fill="#8F563B" />
<rect x="46" y="2" width="1" height="1" fill="#8F563B" />
<rect x="47" y="2" width="1" height="1" fill="#8F563B" />
<rect x="2" y="3" width="1" height="1" fill="#FFFFFF" />
<rect x="3" y="3" width="1" height="1" fill="#E4E4E4" />
<rect x="4" y="3" width="1" height="1" fill="#5B5B5B" />
<rect x="5" y="3" width="1" height="1" fill="#FFFFFF" />
<rect x="6" y="3" width="1" height="1" fill="#E4E4E4" />
<rect x="7" y="3" width="1" height="1" fill="#5B5B5B" />
<rect x="8" y="3" width="1" height="1" fill="#5B5B5B" />
<rect x="9" y="3" width="1" height="1" fill="#8F563B" />
<rect x="15" y="3" width="1" height="1" fill="#EEC39A" />
<rect x="16" y="3" width="1" height="1" fill="#EEC39A" />
<rect x="17" y="3" width="1" height="1" fill="#EEC39A" />
<rect x="18" y="3" width="1" height="1" fill="#EEC39A" />
<rect x="19" y="3" width="1" height="1" fill="#EEC39A" />
<rect x="20" y="3" width="1" height="1" fill="#EEC39A" />
<rect x="21" y="3" width="1" height="1" fill="#8F563B" />
<rect x="22" y="3" width="1" height="1" fill="#8F563B" />
<rect x="27" y="3" width="1" height="1" fill="#663931" />
<rect x="28" y="3" width="1" height="1" fill="#663931" />
<rect x="29" y="3" width="1" height="1" fill="#663931" />
<rect x="30" y="3" width="1" height="1" fill="#663931" />
<rect x="31" y="3" width="1" height="1" fill="#663931" />
<rect x="32" y="3" width="1" height="1" fill="#8F563B" />
<rect x="33" y="3" width="1" height="1" fill="#8F563B" />
<rect x="34" y="3" width="1" height="1" fill="#8F563B" />
<rect x="41" y="3" width="1" height="1" fill="#EEC39A" />
<rect x="42" y="3" width="1" height="1" fill="#EEC39A" />
<rect x="43" y="3" width="1" height="1" fill="#EEC39A" />
<rect x="44" y="3" width="1" height="1" fill="#EEC39A" />
<rect x="45" y="3" width="1" height="1" fill="#EEC39A" />
<rect x="46" y="3" width="1" height="1" fill="#EEC39A" />
<rect x="47" y="3" width="1" height="1" fill="#8F563B" />
<rect x="48" y="3" width="1" height="1" fill="#8F563B" />
<rect x="2" y="4" width="1" height="1" fill="#E4E4E4" />
<rect x="3" y="4" width="1" height="1" fill="#FFFFFF" />
<rect x="4" y="4" width="1" height="1" fill="#EEC39A" />
<rect x="5" y="4" width="1" height="1" fill="#E4E4E4" />
<rect x="6" y="4" width="1" height="1" fill="#FFFFFF" />
<rect x="7" y="4" width="1" height="1" fill="#EEC39A" />
<rect x="8" y="4" width="1" height="1" fill="#EEC39A" />
<rect x="15" y="4" width="1" height="1" fill="#FFFFFF" />
<rect x="16" y="4" width="1" height="1" fill="#E4E4E4" />
<rect x="17" y="4" width="1" height="1" fill="#5B5B5B" />
<rect x="18" y="4" width="1" height="1" fill="#FFFFFF" />
<rect x="19" y="4" width="1" height="1" fill="#E4E4E4" />
<rect x="20" y="4" width="1" height="1" fill="#5B5B5B" />
<rect x="21" y="4" width="1" height="1" fill="#5B5B5B" />
<rect x="22" y="4" width="1" height="1" fill="#8F563B" />
<rect x="28" y="4" width="1" height="1" fill="#EEC39A" />
<rect x="29" y="4" width="1" height="1" fill="#EEC39A" />
<rect x="30" y="4" width="1" height="1" fill="#EEC39A" />
<rect x="31" y="4" width="1" height="1" fill="#EEC39A" />
<rect x="32" y="4" width="1" height="1" fill="#EEC39A" />
<rect x="33" y="4" width="1" height="1" fill="#EEC39A" />
<rect x="34" y="4" width="1" height="1" fill="#8F563B" />
<rect x="35" y="4" width="1" height="1" fill="#8F563B" />
<rect x="41" y="4" width="1" height="1" fill="#FFFFFF" />
<rect x="42" y="4" width="1" height="1" fill="#E4E4E4" />
<rect x="43" y="4" width="1" height="1" fill="#5B5B5B" />
<rect x="44" y="4" width="1" height="1" fill="#FFFFFF" />
<rect x="45" y="4" width="1" height="1" fill="#E4E4E4" />
<rect x="46" y="4" width="1" height="1" fill="#5B5B5B" />
<rect x="47" y="4" width="1" height="1" fill="#5B5B5B" />
<rect x="48" y="4" width="1" height="1" fill="#8F563B" />
<rect x="2" y="5" width="1" height="1" fill="#EEC39A" />
<rect x="3" y="5" width="1" height="1" fill="#EEC39A" />
<rect x="4" y="5" width="1" height="1" fill="#D9A066" />
<rect x="5" y="5" width="1" height="1" fill="#EEC39A" />
<rect x="6" y="5" width="1" height="1" fill="#EEC39A" />
<rect x="7" y="5" width="1" height="1" fill="#EEC39A" />
<rect x="8" y="5" width="1" height="1" fill="#EEC39A" />
<rect x="15" y="5" width="1" height="1" fill="#E4E4E4" />
<rect x="16" y="5" width="1" height="1" fill="#FFFFFF" />
<rect x="17" y="5" width="1" height="1" fill="#EEC39A" />
<rect x="18" y="5" width="1" height="1" fill="#E4E4E4" />
<rect x="19" y="5" width="1" height="1" fill="#FFFFFF" />
<rect x="20" y="5" width="1" height="1" fill="#EEC39A" />
<rect x="21" y="5" width="1" height="1" fill="#EEC39A" />
<rect x="28" y="5" width="1" height="1" fill="#FFFFFF" />
<rect x="29" y="5" width="1" height="1" fill="#E4E4E4" />
<rect x="30" y="5" width="1" height="1" fill="#5B5B5B" />
<rect x="31" y="5" width="1" height="1" fill="#FFFFFF" />
<rect x="32" y="5" width="1" height="1" fill="#E4E4E4" />
<rect x="33" y="5" width="1" height="1" fill="#5B5B5B" />
<rect x="34" y="5" width="1" height="1" fill="#5B5B5B" />
<rect x="35" y="5" width="1" height="1" fill="#8F563B" />
<rect x="41" y="5" width="1" height="1" fill="#E4E4E4" />
<rect x="42" y="5" width="1" height="1" fill="#FFFFFF" />
<rect x="43" y="5" width="1" height="1" fill="#EEC39A" />
<rect x="44" y="5" width="1" height="1" fill="#E4E4E4" />
<rect x="45" y="5" width="1" height="1" fill="#FFFFFF" />
<rect x="46" y="5" width="1" height="1" fill="#EEC39A" />
<rect x="47" y="5" width="1" height="1" fill="#EEC39A" />
<rect x="3" y="6" width="1" height="1" fill="#EEC39A" />
<rect x="4" y="6" width="1" height="1" fill="#EEC39A" />
<rect x="5" y="6" width="1" height="1" fill="#EEC39A" />
<rect x="6" y="6" width="1" height="1" fill="#EEC39A" />
<rect x="7" y="6" width="1" height="1" fill="#EEC39A" />
<rect x="15" y="6" width="1" height="1" fill="#EEC39A" />
<rect x="16" y="6" width="1" height="1" fill="#EEC39A" />
<rect x="17" y="6" width="1" height="1" fill="#D9A066" />
<rect x="18" y="6" width="1" height="1" fill="#EEC39A" />
<rect x="19" y="6" width="1" height="1" fill="#EEC39A" />
<rect x="20" y="6" width="1" height="1" fill="#EEC39A" />
<rect x="21" y="6" width="1" height="1" fill="#EEC39A" />
<rect x="28" y="6" width="1" height="1" fill="#E4E4E4" />
<rect x="29" y="6" width="1" height="1" fill="#FFFFFF" />
<rect x="30" y="6" width="1" height="1" fill="#EEC39A" />
<rect x="31" y="6" width="1" height="1" fill="#E4E4E4" />
<rect x="32" y="6" width="1" height="1" fill="#FFFFFF" />
<rect x="33" y="6" width="1" height="1" fill="#EEC39A" />
<rect x="34" y="6" width="1" height="1" fill="#EEC39A" />
<rect x="41" y="6" width="1" height="1" fill="#EEC39A" />
<rect x="42" y="6" width="1" height="1" fill="#EEC39A" />
<rect x="43" y="6" width="1" height="1" fill="#D9A066" />
<rect x="44" y="6" width="1" height="1" fill="#EEC39A" />
<rect x="45" y="6" width="1" height="1" fill="#EEC39A" />
<rect x="46" y="6" width="1" height="1" fill="#EEC39A" />
<rect x="47" y="6" width="1" height="1" fill="#EEC39A" />
<rect x="2" y="7" width="1" height="1" fill="#D95763" />
<rect x="3" y="7" width="1" height="1" fill="#D95763" />
<rect x="4" y="7" width="1" height="1" fill="#D95763" />
<rect x="5" y="7" width="1" height="1" fill="#D95763" />
<rect x="6" y="7" width="1" height="1" fill="#D95763" />
<rect x="7" y="7" width="1" height="1" fill="#D95763" />
<rect x="8" y="7" width="1" height="1" fill="#D95763" />
<rect x="9" y="7" width="1" height="1" fill="#D95763" />
<rect x="16" y="7" width="1" height="1" fill="#EEC39A" />
<rect x="17" y="7" width="1" height="1" fill="#EEC39A" />
<rect x="18" y="7" width="1" height="1" fill="#EEC39A" />
<rect x="19" y="7" width="1" height="1" fill="#EEC39A" />
<rect x="20" y="7" width="1" height="1" fill="#EEC39A" />
<rect x="28" y="7" width="1" height="1" fill="#EEC39A" />
<rect x="29" y="7" width="1" height="1" fill="#EEC39A" />
<rect x="30" y="7" width="1" height="1" fill="#D9A066" />
<rect x="31" y="7" width="1" height="1" fill="#EEC39A" />
<rect x="32" y="7" width="1" height="1" fill="#EEC39A" />
<rect x="33" y="7" width="1" height="1" fill="#EEC39A" />
<rect x="34" y="7" width="1" height="1" fill="#EEC39A" />
<rect x="42" y="7" width="1" height="1" fill="#EEC39A" />
<rect x="43" y="7" width="1" height="1" fill="#EEC39A" />
<rect x="44" y="7" width="1" height="1" fill="#EEC39A" />
<rect x="45" y="7" width="1" height="1" fill="#EEC39A" />
<rect x="46" y="7" width="1" height="1" fill="#EEC39A" />
<rect x="1" y="8" width="1" height="1" fill="#D95763" />
<rect x="2" y="8" width="1" height="1" fill="#D95763" />
<rect x="3" y="8" width="1" height="1" fill="#D95763" />
<rect x="4" y="8" width="1" height="1" fill="#FBF236" />
<rect x="5" y="8" width="1" height="1" fill="#FBF236" />
<rect x="6" y="8" width="1" height="1" fill="#FBF236" />
<rect x="7" y="8" width="1" height="1" fill="#D95763" />
<rect x="8" y="8" width="1" height="1" fill="#D95763" />
<rect x="9" y="8" width="1" height="1" fill="#D95763" />
<rect x="10" y="8" width="1" height="1" fill="#D95763" />
<rect x="15" y="8" width="1" height="1" fill="#D95763" />
<rect x="16" y="8" width="1" height="1" fill="#D95763" />
<rect x="17" y="8" width="1" height="1" fill="#D95763" />
<rect x="18" y="8" width="1" height="1" fill="#D95763" />
<rect x="19" y="8" width="1" height="1" fill="#D95763" />
<rect x="20" y="8" width="1" height="1" fill="#D95763" />
<rect x="21" y="8" width="1" height="1" fill="#D95763" />
<rect x="22" y="8" width="1" height="1" fill="#D95763" />
<rect x="29" y="8" width="1" height="1" fill="#EEC39A" />
<rect x="30" y="8" width="1" height="1" fill="#EEC39A" />
<rect x="31" y="8" width="1" height="1" fill="#EEC39A" />
<rect x="32" y="8" width="1" height="1" fill="#EEC39A" />
<rect x="33" y="8" width="1" height="1" fill="#EEC39A" />
<rect x="41" y="8" width="1" height="1" fill="#D95763" />
<rect x="42" y="8" width="1" height="1" fill="#D95763" />
<rect x="43" y="8" width="1" height="1" fill="#D95763" />
<rect x="44" y="8" width="1" height="1" fill="#D95763" />
<rect x="45" y="8" width="1" height="1" fill="#D95763" />
<rect x="46" y="8" width="1" height="1" fill="#D95763" />
<rect x="47" y="8" width="1" height="1" fill="#D95763" />
<rect x="48" y="8" width="1" height="1" fill="#D95763" />
<rect x="0" y="9" width="1" height="1" fill="#C8A482" />
<rect x="1" y="9" width="1" height="1" fill="#EEC39A" />
<rect x="2" y="9" width="1" height="1" fill="#BF404C" />
<rect x="3" y="9" width="1" height="1" fill="#D95763" />
<rect x="4" y="9" width="1" height="1" fill="#D95763" />
<rect x="5" y="9" width="1" height="1" fill="#FBF236" />
<rect x="6" y="9" width="1" height="1" fill="#D95763" />
<rect x="7" y="9" width="1" height="1" fill="#D95763" />
<rect x="8" y="9" width="1" height="1" fill="#D95763" />
<rect x="9" y="9" width="1" height="1" fill="#BF404C" />
<rect x="10" y="9" width="1" height="1" fill="#EEC39A" />
<rect x="11" y="9" width="1" height="1" fill="#C8A482" />
<rect x="14" y="9" width="1" height="1" fill="#D95763" />
<rect x="15" y="9" width="1" height="1" fill="#D95763" />
<rect x="16" y="9" width="1" height="1" fill="#D95763" />
<rect x="17" y="9" width="1" height="1" fill="#FBF236" />
<rect x="18" y="9" width="1" height="1" fill="#FBF236" />
<rect x="19" y="9" width="1" height="1" fill="#FBF236" />
<rect x="20" y="9" width="1" height="1" fill="#D95763" />
<rect x="21" y="9" width="1" height="1" fill="#D95763" />
<rect x="22" y="9" width="1" height="1" fill="#D95763" />
<rect x="23" y="9" width="1" height="1" fill="#D95763" />
<rect x="26" y="9" width="1" height="1" fill="#C8A482" />
<rect x="27" y="9" width="1" height="1" fill="#EEC39A" />
<rect x="28" y="9" width="1" height="1" fill="#D95763" />
<rect x="29" y="9" width="1" height="1" fill="#D95763" />
<rect x="30" y="9" width="1" height="1" fill="#D95763" />
<rect x="31" y="9" width="1" height="1" fill="#D95763" />
<rect x="32" y="9" width="1" height="1" fill="#D95763" />
<rect x="33" y="9" width="1" height="1" fill="#D95763" />
<rect x="34" y="9" width="1" height="1" fill="#D95763" />
<rect x="35" y="9" width="1" height="1" fill="#D95763" />
<rect x="36" y="9" width="1" height="1" fill="#EEC39A" />
<rect x="37" y="9" width="1" height="1" fill="#C8A482" />
<rect x="40" y="9" width="1" height="1" fill="#D95763" />
<rect x="41" y="9" width="1" height="1" fill="#D95763" />
<rect x="42" y="9" width="1" height="1" fill="#D95763" />
<rect x="43" y="9" width="1" height="1" fill="#FBF236" />
<rect x="44" y="9" width="1" height="1" fill="#FBF236" />
<rect x="45" y="9" width="1" height="1" fill="#FBF236" />
<rect x="46" y="9" width="1" height="1" fill="#D95763" />
<rect x="47" y="9" width="1" height="1" fill="#D95763" />
<rect x="48" y="9" width="1" height="1" fill="#D95763" />
<rect x="49" y="9" width="1" height="1" fill="#D95763" />
<rect x="0" y="10" width="1" height="1" fill="#EEC39A" />
<rect x="1" y="10" width="1" height="1" fill="#C8A482" />
<rect x="2" y="10" width="1" height="1" fill="#D95763" />
<rect x="3" y="10" width="1" height="1" fill="#847E87" />
<rect x="4" y="10" width="1" height="1" fill="#D95763" />
<rect x="5" y="10" width="1" height="1" fill="#D95763" />
<rect x="6" y="10" width="1" height="1" fill="#D95763" />
<rect x="7" y="10" width="1" height="1" fill="#847E87" />
<rect x="8" y="10" width="1" height="1" fill="#D95763" />
<rect x="9" y="10" width="1" height="1" fill="#D95763" />
<rect x="10" y="10" width="1" height="1" fill="#C8A482" />
<rect x="11" y="10" width="1" height="1" fill="#EEC39A" />
<rect x="13" y="10" width="1" height="1" fill="#C8A482" />
<rect x="14" y="10" width="1" height="1" fill="#EEC39A" />
<rect x="15" y="10" width="1" height="1" fill="#BF404C" />
<rect x="16" y="10" width="1" height="1" fill="#D95763" />
<rect x="17" y="10" width="1" height="1" fill="#D95763" />
<rect x="18" y="10" width="1" height="1" fill="#FBF236" />
<rect x="19" y="10" width="1" height="1" fill="#D95763" />
<rect x="20" y="10" width="1" height="1" fill="#D95763" />
<rect x="21" y="10" width="1" height="1" fill="#D95763" />
<rect x="22" y="10" width="1" height="1" fill="#BF404C" />
<rect x="23" y="10" width="1" height="1" fill="#EEC39A" />
<rect x="24" y="10" width="1" height="1" fill="#C8A482" />
<rect x="26" y="10" width="1" height="1" fill="#EEC39A" />
<rect x="27" y="10" width="1" height="1" fill="#C8A482" />
<rect x="28" y="10" width="1" height="1" fill="#BF404C" />
<rect x="29" y="10" width="1" height="1" fill="#D95763" />
<rect x="30" y="10" width="1" height="1" fill="#FBF236" />
<rect x="31" y="10" width="1" height="1" fill="#FBF236" />
<rect x="32" y="10" width="1" height="1" fill="#FBF236" />
<rect x="33" y="10" width="1" height="1" fill="#D95763" />
<rect x="34" y="10" width="1" height="1" fill="#D95763" />
<rect x="35" y="10" width="1" height="1" fill="#BF404C" />
<rect x="36" y="10" width="1" height="1" fill="#C8A482" />
<rect x="37" y="10" width="1" height="1" fill="#EEC39A" />
<rect x="39" y="10" width="1" height="1" fill="#C8A482" />
<rect x="40" y="10" width="1" height="1" fill="#EEC39A" />
<rect x="41" y="10" width="1" height="1" fill="#BF404C" />
<rect x="42" y="10" width="1" height="1" fill="#D95763" />
<rect x="43" y="10" width="1" height="1" fill="#D95763" />
<rect x="44" y="10" width="1" height="1" fill="#FBF236" />
<rect x="45" y="10" width="1" height="1" fill="#D95763" />
<rect x="46" y="10" width="1" height="1" fill="#D95763" />
<rect x="47" y="10" width="1" height="1" fill="#D95763" />
<rect x="48" y="10" width="1" height="1" fill="#BF404C" />
<rect x="49" y="10" width="1" height="1" fill="#EEC39A" />
<rect x="50" y="10" width="1" height="1" fill="#C8A482" />
<rect x="2" y="11" width="1" height="1" fill="#5B354F" />
<rect x="3" y="11" width="1" height="1" fill="#5B354F" />
<rect x="4" y="11" width="1" height="1" fill="#FBC736" />
<rect x="5" y="11" width="1" height="1" fill="#FBF236" />
<rect x="6" y="11" width="1" height="1" fill="#5B354F" />
<rect x="7" y="11" width="1" height="1" fill="#5B354F" />
<rect x="8" y="11" width="1" height="1" fill="#5B354F" />
<rect x="9" y="11" width="1" height="1" fill="#5B354F" />
<rect x="13" y="11" width="1" height="1" fill="#EEC39A" />
<rect x="14" y="11" width="1" height="1" fill="#C8A482" />
<rect x="15" y="11" width="1" height="1" fill="#D95763" />
<rect x="16" y="11" width="1" height="1" fill="#847E87" />
<rect x="17" y="11" width="1" height="1" fill="#D95763" />
<rect x="18" y="11" width="1" height="1" fill="#D95763" />
<rect x="19" y="11" width="1" height="1" fill="#D95763" />
<rect x="20" y="11" width="1" height="1" fill="#847E87" />
<rect x="21" y="11" width="1" height="1" fill="#D95763" />
<rect x="22" y="11" width="1" height="1" fill="#D95763" />
<rect x="23" y="11" width="1" height="1" fill="#C8A482" />
<rect x="24" y="11" width="1" height="1" fill="#EEC39A" />
<rect x="28" y="11" width="1" height="1" fill="#D95763" />
<rect x="29" y="11" width="1" height="1" fill="#847E87" />
<rect x="30" y="11" width="1" height="1" fill="#D95763" />
<rect x="31" y="11" width="1" height="1" fill="#D95763" />
<rect x="32" y="11" width="1" height="1" fill="#D95763" />
<rect x="33" y="11" width="1" height="1" fill="#847E87" />
<rect x="34" y="11" width="1" height="1" fill="#D95763" />
<rect x="35" y="11" width="1" height="1" fill="#D95763" />
<rect x="39" y="11" width="1" height="1" fill="#EEC39A" />
<rect x="40" y="11" width="1" height="1" fill="#C8A482" />
<rect x="41" y="11" width="1" height="1" fill="#D95763" />
<rect x="42" y="11" width="1" height="1" fill="#847E87" />
<rect x="43" y="11" width="1" height="1" fill="#D95763" />
<rect x="44" y="11" width="1" height="1" fill="#D95763" />
<rect x="45" y="11" width="1" height="1" fill="#D95763" />
<rect x="46" y="11" width="1" height="1" fill="#847E87" />
<rect x="47" y="11" width="1" height="1" fill="#D95763" />
<rect x="48" y="11" width="1" height="1" fill="#D95763" />
<rect x="49" y="11" width="1" height="1" fill="#C8A482" />
<rect x="50" y="11" width="1" height="1" fill="#EEC39A" />
<rect x="2" y="12" width="1" height="1" fill="#45283C" />
<rect x="3" y="12" width="1" height="1" fill="#45283C" />
<rect x="4" y="12" width="1" height="1" fill="#FBF236" />
<rect x="5" y="12" width="1" height="1" fill="#FBC736" />
<rect x="6" y="12" width="1" height="1" fill="#45283C" />
<rect x="7" y="12" width="1" height="1" fill="#45283C" />
<rect x="8" y="12" width="1" height="1" fill="#45283C" />
<rect x="9" y="12" width="1" height="1" fill="#45283C" />
<rect x="15" y="12" width="1" height="1" fill="#5B354F" />
<rect x="16" y="12" width="1" height="1" fill="#5B354F" />
<rect x="17" y="12" width="1" height="1" fill="#FBC736" />
<rect x="18" y="12" width="1" height="1" fill="#FBF236" />
<rect x="19" y="12" width="1" height="1" fill="#5B354F" />
<rect x="20" y="12" width="1" height="1" fill="#5B354F" />
<rect x="21" y="12" width="1" height="1" fill="#5B354F" />
<rect x="22" y="12" width="1" height="1" fill="#5B354F" />
<rect x="28" y="12" width="1" height="1" fill="#5B354F" />
<rect x="29" y="12" width="1" height="1" fill="#5B354F" />
<rect x="30" y="12" width="1" height="1" fill="#FBC736" />
<rect x="31" y="12" width="1" height="1" fill="#FBF236" />
<rect x="32" y="12" width="1" height="1" fill="#5B354F" />
<rect x="33" y="12" width="1" height="1" fill="#5B354F" />
<rect x="34" y="12" width="1" height="1" fill="#5B354F" />
<rect x="35" y="12" width="1" height="1" fill="#5B354F" />
<rect x="41" y="12" width="1" height="1" fill="#5B354F" />
<rect x="42" y="12" width="1" height="1" fill="#5B354F" />
<rect x="43" y="12" width="1" height="1" fill="#FBC736" />
<rect x="44" y="12" width="1" height="1" fill="#FBF236" />
<rect x="45" y="12" width="1" height="1" fill="#5B354F" />
<rect x="46" y="12" width="1" height="1" fill="#5B354F" />
<rect x="47" y="12" width="1" height="1" fill="#5B354F" />
<rect x="48" y="12" width="1" height="1" fill="#5B354F" />
<rect x="2" y="13" width="1" height="1" fill="#8F563B" />
<rect x="3" y="13" width="1" height="1" fill="#8F563B" />
<rect x="4" y="13" width="1" height="1" fill="#8F563B" />
<rect x="5" y="13" width="1" height="1" fill="#8F563B" />
<rect x="6" y="13" width="1" height="1" fill="#8F563B" />
<rect x="7" y="13" width="1" height="1" fill="#8F563B" />
<rect x="8" y="13" width="1" height="1" fill="#8F563B" />
<rect x="9" y="13" width="1" height="1" fill="#8F563B" />
<rect x="15" y="13" width="1" height="1" fill="#45283C" />
<rect x="16" y="13" width="1" height="1" fill="#45283C" />
<rect x="17" y="13" width="1" height="1" fill="#FBF236" />
<rect x="18" y="13" width="1" height="1" fill="#FBC736" />
<rect x="19" y="13" width="1" height="1" fill="#45283C" />
<rect x="20" y="13" width="1" height="1" fill="#45283C" />
<rect x="21" y="13" width="1" height="1" fill="#45283C" />
<rect x="22" y="13" width="1" height="1" fill="#45283C" />
<rect x="28" y="13" width="1" height="1" fill="#45283C" />
<rect x="29" y="13" width="1" height="1" fill="#45283C" />
<rect x="30" y="13" width="1" height="1" fill="#FBF236" />
<rect x="31" y="13" width="1" height="1" fill="#FBC736" />
<rect x="32" y="13" width="1" height="1" fill="#45283C" />
<rect x="33" y="13" width="1" height="1" fill="#45283C" />
<rect x="34" y="13" width="1" height="1" fill="#45283C" />
<rect x="35" y="13" width="1" height="1" fill="#45283C" />
<rect x="41" y="13" width="1" height="1" fill="#45283C" />
<rect x="42" y="13" width="1" height="1" fill="#45283C" />
<rect x="43" y="13" width="1" height="1" fill="#FBF236" />
<rect x="44" y="13" width="1" height="1" fill="#FBC736" />
<rect x="45" y="13" width="1" height="1" fill="#45283C" />
<rect x="46" y="13" width="1" height="1" fill="#45283C" />
<rect x="47" y="13" width="1" height="1" fill="#45283C" />
<rect x="48" y="13" width="1" height="1" fill="#45283C" />
<rect x="3" y="14" width="1" height="1" fill="#8F563B" />
<rect x="4" y="14" width="1" height="1" fill="#8F563B" />
<rect x="7" y="14" width="1" height="1" fill="#8F563B" />
<rect x="8" y="14" width="1" height="1" fill="#8F563B" />
<rect x="16" y="14" width="1" height="1" fill="#8F563B" />
<rect x="17" y="14" width="1" height="1" fill="#8F563B" />
<rect x="20" y="14" width="1" height="1" fill="#8F563B" />
<rect x="21" y="14" width="1" height="1" fill="#8F563B" />
<rect x="29" y="14" width="1" height="1" fill="#8F563B" />
<rect x="30" y="14" width="1" height="1" fill="#8F563B" />
<rect x="33" y="14" width="1" height="1" fill="#8F563B" />
<rect x="34" y="14" width="1" height="1" fill="#8F563B" />
<rect x="42" y="14" width="1" height="1" fill="#8F563B" />
<rect x="43" y="14" width="1" height="1" fill="#8F563B" />
<rect x="46" y="14" width="1" height="1" fill="#8F563B" />
<rect x="47" y="14" width="1" height="1" fill="#8F563B" />
<rect x="3" y="15" width="1" height="1" fill="#6D3B5E" />
<rect x="4" y="15" width="1" height="1" fill="#45283C" />
<rect x="7" y="15" width="1" height="1" fill="#45283C" />
<rect x="8" y="15" width="1" height="1" fill="#6D3B5E" />
<rect x="16" y="15" width="1" height="1" fill="#6D3B5E" />
<rect x="17" y="15" width="1" height="1" fill="#45283C" />
<rect x="20" y="15" width="1" height="1" fill="#45283C" />
<rect x="21" y="15" width="1" height="1" fill="#6D3B5E" />
<rect x="29" y="15" width="1" height="1" fill="#6D3B5E" />
<rect x="30" y="15" width="1" height="1" fill="#45283C" />
<rect x="33" y="15" width="1" height="1" fill="#45283C" />
<rect x="34" y="15" width="1" height="1" fill="#6D3B5E" />
<rect x="42" y="15" width="1" height="1" fill="#6D3B5E" />
<rect x="43" y="15" width="1" height="1" fill="#45283C" />
<rect x="46" y="15" width="1" height="1" fill="#45283C" />
<rect x="47" y="15" width="1" height="1" fill="#6D3B5E" />
<rect x="2" y="16" width="1" height="1" fill="#6D3B5E" />
<rect x="3" y="16" width="1" height="1" fill="#45283C" />
<rect x="4" y="16" width="1" height="1" fill="#45283C" />
<rect x="6" y="16" width="1" height="1" fill="#45283C" />
<rect x="7" y="16" width="1" height="1" fill="#6D3B5E" />
<rect x="8" y="16" width="1" height="1" fill="#6D3B5E" />
<rect x="15" y="16" width="1" height="1" fill="#6D3B5E" />
<rect x="16" y="16" width="1" height="1" fill="#45283C" />
<rect x="17" y="16" width="1" height="1" fill="#45283C" />
<rect x="19" y="16" width="1" height="1" fill="#45283C" />
<rect x="20" y="16" width="1" height="1" fill="#6D3B5E" />
<rect x="21" y="16" width="1" height="1" fill="#6D3B5E" />
<rect x="28" y="16" width="1" height="1" fill="#6D3B5E" />
<rect x="29" y="16" width="1" height="1" fill="#45283C" />
<rect x="30" y="16" width="1" height="1" fill="#45283C" />
<rect x="32" y="16" width="1" height="1" fill="#45283C" />
<rect x="33" y="16" width="1" height="1" fill="#6D3B5E" />
<rect x="34" y="16" width="1" height="1" fill="#6D3B5E" />
<rect x="41" y="16" width="1" height="1" fill="#6D3B5E" />
<rect x="42" y="16" width="1" height="1" fill="#45283C" />
<rect x="43" y="16" width="1" height="1" fill="#45283C" />
<rect x="45" y="16" width="1" height="1" fill="#45283C" />
<rect x="46" y="16" width="1" height="1" fill="#6D3B5E" />
<rect x="47" y="16" width="1" height="1" fill="#6D3B5E" />
</svg>